# xmcd
#
# Track frame offsets: 
#        150
#        11315
#        21718
#        34236
#        50325
#        62618
#        74926
#        88391
#        105942
#        120792
#        136856
#        149920
#
# Disc length: 2141 seconds
#
# Revision: 3
# Processed by: cddbd v1.5.2PL0 Copyright (c) Steve Scherf et al.
# Submitted via: ExactAudioCopy v0.99pb4
#
DISCID=ad085b0c
DTITLE=Aretha Franklin - Aretha Franklin
DYEAR=1997
DGENRE=Rock
TTITLE0=Respect
TTITLE1=Think
TTITLE2=Chain of Fools
TTITLE3=I Say a Little Prayer
TTITLE4=A Natural Woman (You Make Me Feel Like)
TTITLE5=I Never Loved a Man (The Way I Love You)
TTITLE6=Don't Play That Song
TTITLE7=Call Me
TTITLE8=Share Your Love with Me
TTITLE9=Jesus on The Main Line
TTITLE10=He's All Right
TTITLE11=Power
EXTD=ID3G: 17
EXTT0=
EXTT1=
EXTT2=
EXTT3=
EXTT4=
EXTT5=
EXTT6=
EXTT7=
EXTT8=
EXTT9=
EXTT10=
EXTT11=
PLAYORDER=
